<mxfile host="app.diagrams.net" modified="2022-12-08T07:43:15.363Z" agent="5.0 (Windows NT 10.0; Win64; x64) AppleWebKit/537.36 (KHTML, like Gecko) Chrome/108.0.0.0 Safari/537.36" version="20.6.0" etag="tG6WZ-PfxImok1SfG0Dy" type="github">
  <diagram id="NBsggCKVuBA1LdsYjbiz" name="第 1 页">
    <mxGraphModel dx="1209" dy="642" grid="1" gridSize="10" guides="1" tooltips="1" connect="1" arrows="1" fold="1" page="1" pageScale="1" pageWidth="827" pageHeight="1169" math="0" shadow="0">
      <root>
        <mxCell id="0" />
        <mxCell id="1" parent="0" />
        <mxCell id="g7H52zCNC9NMij33Aelw-1" value="AWS Cloud" style="points=[[0,0],[0.25,0],[0.5,0],[0.75,0],[1,0],[1,0.25],[1,0.5],[1,0.75],[1,1],[0.75,1],[0.5,1],[0.25,1],[0,1],[0,0.75],[0,0.5],[0,0.25]];outlineConnect=0;gradientColor=none;html=1;whiteSpace=wrap;fontSize=12;fontStyle=0;container=1;pointerEvents=0;collapsible=0;recursiveResize=0;shape=mxgraph.aws4.group;grIcon=mxgraph.aws4.group_aws_cloud_alt;strokeColor=#232F3E;fillColor=none;verticalAlign=top;align=left;spacingLeft=30;fontColor=#232F3E;dashed=0;" vertex="1" parent="1">
          <mxGeometry x="10" y="181" width="790" height="1390" as="geometry" />
        </mxCell>
        <mxCell id="g7H52zCNC9NMij33Aelw-2" value="&lt;b&gt;DNS Service&lt;/b&gt;&lt;br&gt;Amazon Route 53" style="sketch=0;points=[[0,0,0],[0.25,0,0],[0.5,0,0],[0.75,0,0],[1,0,0],[0,1,0],[0.25,1,0],[0.5,1,0],[0.75,1,0],[1,1,0],[0,0.25,0],[0,0.5,0],[0,0.75,0],[1,0.25,0],[1,0.5,0],[1,0.75,0]];outlineConnect=0;fontColor=#232F3E;gradientColor=#945DF2;gradientDirection=north;fillColor=#5A30B5;strokeColor=#ffffff;dashed=0;verticalLabelPosition=bottom;verticalAlign=top;align=center;html=1;fontSize=12;fontStyle=0;aspect=fixed;shape=mxgraph.aws4.resourceIcon;resIcon=mxgraph.aws4.route_53;" vertex="1" parent="g7H52zCNC9NMij33Aelw-1">
          <mxGeometry x="406" y="39" width="40" height="40" as="geometry" />
        </mxCell>
        <mxCell id="g7H52zCNC9NMij33Aelw-3" value="&lt;b&gt;Web Application Firewall&lt;/b&gt;&lt;br&gt;AWS WAF" style="sketch=0;points=[[0,0,0],[0.25,0,0],[0.5,0,0],[0.75,0,0],[1,0,0],[0,1,0],[0.25,1,0],[0.5,1,0],[0.75,1,0],[1,1,0],[0,0.25,0],[0,0.5,0],[0,0.75,0],[1,0.25,0],[1,0.5,0],[1,0.75,0]];outlineConnect=0;fontColor=#232F3E;gradientColor=#F54749;gradientDirection=north;fillColor=#C7131F;strokeColor=#ffffff;dashed=0;verticalLabelPosition=bottom;verticalAlign=top;align=center;html=1;fontSize=12;fontStyle=0;aspect=fixed;shape=mxgraph.aws4.resourceIcon;resIcon=mxgraph.aws4.waf;" vertex="1" parent="g7H52zCNC9NMij33Aelw-1">
          <mxGeometry x="180" y="59" width="40" height="40" as="geometry" />
        </mxCell>
        <mxCell id="g7H52zCNC9NMij33Aelw-7" value="&lt;b&gt;DDoS&lt;br&gt;Protection&lt;/b&gt;&lt;br&gt;AWS Shield" style="sketch=0;points=[[0,0,0],[0.25,0,0],[0.5,0,0],[0.75,0,0],[1,0,0],[0,1,0],[0.25,1,0],[0.5,1,0],[0.75,1,0],[1,1,0],[0,0.25,0],[0,0.5,0],[0,0.75,0],[1,0.25,0],[1,0.5,0],[1,0.75,0]];outlineConnect=0;fontColor=#232F3E;gradientColor=#F54749;gradientDirection=north;fillColor=#C7131F;strokeColor=#ffffff;dashed=0;verticalLabelPosition=bottom;verticalAlign=top;align=center;html=1;fontSize=12;fontStyle=0;aspect=fixed;shape=mxgraph.aws4.resourceIcon;resIcon=mxgraph.aws4.shield;" vertex="1" parent="g7H52zCNC9NMij33Aelw-1">
          <mxGeometry x="662" y="19" width="40" height="40" as="geometry" />
        </mxCell>
        <mxCell id="g7H52zCNC9NMij33Aelw-8" value="Availability Zone 1" style="fillColor=none;strokeColor=#147EBA;dashed=1;verticalAlign=top;fontStyle=0;fontColor=#147EBA;" vertex="1" parent="g7H52zCNC9NMij33Aelw-1">
          <mxGeometry x="172" y="227" width="180" height="770" as="geometry" />
        </mxCell>
        <mxCell id="g7H52zCNC9NMij33Aelw-9" value="Availability Zone 2" style="fillColor=none;strokeColor=#147EBA;dashed=1;verticalAlign=top;fontStyle=0;fontColor=#147EBA;" vertex="1" parent="g7H52zCNC9NMij33Aelw-1">
          <mxGeometry x="502" y="227" width="190" height="770" as="geometry" />
        </mxCell>
        <mxCell id="g7H52zCNC9NMij33Aelw-10" value="Public subnet" style="points=[[0,0],[0.25,0],[0.5,0],[0.75,0],[1,0],[1,0.25],[1,0.5],[1,0.75],[1,1],[0.75,1],[0.5,1],[0.25,1],[0,1],[0,0.75],[0,0.5],[0,0.25]];outlineConnect=0;gradientColor=none;html=1;whiteSpace=wrap;fontSize=12;fontStyle=0;container=1;pointerEvents=0;collapsible=0;recursiveResize=0;shape=mxgraph.aws4.group;grIcon=mxgraph.aws4.group_security_group;grStroke=0;strokeColor=#248814;fillColor=#E9F3E6;verticalAlign=top;align=left;spacingLeft=30;fontColor=#248814;dashed=0;" vertex="1" parent="g7H52zCNC9NMij33Aelw-1">
          <mxGeometry x="197" y="277" width="130" height="130" as="geometry" />
        </mxCell>
        <mxCell id="g7H52zCNC9NMij33Aelw-13" value="Public subnet" style="points=[[0,0],[0.25,0],[0.5,0],[0.75,0],[1,0],[1,0.25],[1,0.5],[1,0.75],[1,1],[0.75,1],[0.5,1],[0.25,1],[0,1],[0,0.75],[0,0.5],[0,0.25]];outlineConnect=0;gradientColor=none;html=1;whiteSpace=wrap;fontSize=12;fontStyle=0;container=1;pointerEvents=0;collapsible=0;recursiveResize=0;shape=mxgraph.aws4.group;grIcon=mxgraph.aws4.group_security_group;grStroke=0;strokeColor=#248814;fillColor=#E9F3E6;verticalAlign=top;align=left;spacingLeft=30;fontColor=#248814;dashed=0;" vertex="1" parent="g7H52zCNC9NMij33Aelw-1">
          <mxGeometry x="532" y="277" width="130" height="130" as="geometry" />
        </mxCell>
        <mxCell id="g7H52zCNC9NMij33Aelw-14" value="&lt;b&gt;Static Storage &lt;br&gt;and Backup&lt;/b&gt;&lt;br&gt;Amazon S2" style="sketch=0;points=[[0,0,0],[0.25,0,0],[0.5,0,0],[0.75,0,0],[1,0,0],[0,1,0],[0.25,1,0],[0.5,1,0],[0.75,1,0],[1,1,0],[0,0.25,0],[0,0.5,0],[0,0.75,0],[1,0.25,0],[1,0.5,0],[1,0.75,0]];outlineConnect=0;fontColor=#232F3E;gradientColor=#60A337;gradientDirection=north;fillColor=#277116;strokeColor=#ffffff;dashed=0;verticalLabelPosition=middle;verticalAlign=middle;align=right;html=1;fontSize=12;fontStyle=0;aspect=fixed;shape=mxgraph.aws4.resourceIcon;resIcon=mxgraph.aws4.s3;labelPosition=left;" vertex="1" parent="g7H52zCNC9NMij33Aelw-1">
          <mxGeometry x="90" y="159" width="40" height="40" as="geometry" />
        </mxCell>
        <mxCell id="g7H52zCNC9NMij33Aelw-15" value="Web subnet" style="points=[[0,0],[0.25,0],[0.5,0],[0.75,0],[1,0],[1,0.25],[1,0.5],[1,0.75],[1,1],[0.75,1],[0.5,1],[0.25,1],[0,1],[0,0.75],[0,0.5],[0,0.25]];outlineConnect=0;gradientColor=none;html=1;whiteSpace=wrap;fontSize=12;fontStyle=0;container=1;pointerEvents=0;collapsible=0;recursiveResize=0;shape=mxgraph.aws4.group;grIcon=mxgraph.aws4.group_security_group;grStroke=0;strokeColor=#147EBA;fillColor=#E6F2F8;verticalAlign=top;align=left;spacingLeft=30;fontColor=#147EBA;dashed=0;" vertex="1" parent="g7H52zCNC9NMij33Aelw-1">
          <mxGeometry x="197" y="457" width="130" height="130" as="geometry" />
        </mxCell>
        <mxCell id="g7H52zCNC9NMij33Aelw-16" value="Web subnet" style="points=[[0,0],[0.25,0],[0.5,0],[0.75,0],[1,0],[1,0.25],[1,0.5],[1,0.75],[1,1],[0.75,1],[0.5,1],[0.25,1],[0,1],[0,0.75],[0,0.5],[0,0.25]];outlineConnect=0;gradientColor=none;html=1;whiteSpace=wrap;fontSize=12;fontStyle=0;container=1;pointerEvents=0;collapsible=0;recursiveResize=0;shape=mxgraph.aws4.group;grIcon=mxgraph.aws4.group_security_group;grStroke=0;strokeColor=#147EBA;fillColor=#E6F2F8;verticalAlign=top;align=left;spacingLeft=30;fontColor=#147EBA;dashed=0;" vertex="1" parent="g7H52zCNC9NMij33Aelw-1">
          <mxGeometry x="532" y="457" width="130" height="130" as="geometry" />
        </mxCell>
        <mxCell id="g7H52zCNC9NMij33Aelw-17" value="App subnet" style="points=[[0,0],[0.25,0],[0.5,0],[0.75,0],[1,0],[1,0.25],[1,0.5],[1,0.75],[1,1],[0.75,1],[0.5,1],[0.25,1],[0,1],[0,0.75],[0,0.5],[0,0.25]];outlineConnect=0;gradientColor=none;html=1;whiteSpace=wrap;fontSize=12;fontStyle=0;container=1;pointerEvents=0;collapsible=0;recursiveResize=0;shape=mxgraph.aws4.group;grIcon=mxgraph.aws4.group_security_group;grStroke=0;strokeColor=#147EBA;fillColor=#E6F2F8;verticalAlign=top;align=left;spacingLeft=30;fontColor=#147EBA;dashed=0;" vertex="1" parent="g7H52zCNC9NMij33Aelw-1">
          <mxGeometry x="196" y="642" width="130" height="130" as="geometry" />
        </mxCell>
        <mxCell id="g7H52zCNC9NMij33Aelw-18" value="App subnet" style="points=[[0,0],[0.25,0],[0.5,0],[0.75,0],[1,0],[1,0.25],[1,0.5],[1,0.75],[1,1],[0.75,1],[0.5,1],[0.25,1],[0,1],[0,0.75],[0,0.5],[0,0.25]];outlineConnect=0;gradientColor=none;html=1;whiteSpace=wrap;fontSize=12;fontStyle=0;container=1;pointerEvents=0;collapsible=0;recursiveResize=0;shape=mxgraph.aws4.group;grIcon=mxgraph.aws4.group_security_group;grStroke=0;strokeColor=#147EBA;fillColor=#E6F2F8;verticalAlign=top;align=left;spacingLeft=30;fontColor=#147EBA;dashed=0;" vertex="1" parent="g7H52zCNC9NMij33Aelw-1">
          <mxGeometry x="532" y="642" width="130" height="130" as="geometry" />
        </mxCell>
        <mxCell id="g7H52zCNC9NMij33Aelw-20" value="DB subnet" style="points=[[0,0],[0.25,0],[0.5,0],[0.75,0],[1,0],[1,0.25],[1,0.5],[1,0.75],[1,1],[0.75,1],[0.5,1],[0.25,1],[0,1],[0,0.75],[0,0.5],[0,0.25]];outlineConnect=0;gradientColor=none;html=1;whiteSpace=wrap;fontSize=12;fontStyle=0;container=1;pointerEvents=0;collapsible=0;recursiveResize=0;shape=mxgraph.aws4.group;grIcon=mxgraph.aws4.group_security_group;grStroke=0;strokeColor=#147EBA;fillColor=#E6F2F8;verticalAlign=top;align=left;spacingLeft=30;fontColor=#147EBA;dashed=0;" vertex="1" parent="g7H52zCNC9NMij33Aelw-1">
          <mxGeometry x="196" y="827" width="130" height="130" as="geometry" />
        </mxCell>
        <mxCell id="g7H52zCNC9NMij33Aelw-21" value="DB subnet" style="points=[[0,0],[0.25,0],[0.5,0],[0.75,0],[1,0],[1,0.25],[1,0.5],[1,0.75],[1,1],[0.75,1],[0.5,1],[0.25,1],[0,1],[0,0.75],[0,0.5],[0,0.25]];outlineConnect=0;gradientColor=none;html=1;whiteSpace=wrap;fontSize=12;fontStyle=0;container=1;pointerEvents=0;collapsible=0;recursiveResize=0;shape=mxgraph.aws4.group;grIcon=mxgraph.aws4.group_security_group;grStroke=0;strokeColor=#147EBA;fillColor=#E6F2F8;verticalAlign=top;align=left;spacingLeft=30;fontColor=#147EBA;dashed=0;" vertex="1" parent="g7H52zCNC9NMij33Aelw-1">
          <mxGeometry x="532" y="827" width="130" height="130" as="geometry" />
        </mxCell>
        <mxCell id="g7H52zCNC9NMij33Aelw-22" value="&lt;b&gt;CDN&lt;/b&gt;&lt;br&gt;Amazon CloudFront" style="sketch=0;points=[[0,0,0],[0.25,0,0],[0.5,0,0],[0.75,0,0],[1,0,0],[0,1,0],[0.25,1,0],[0.5,1,0],[0.75,1,0],[1,1,0],[0,0.25,0],[0,0.5,0],[0,0.75,0],[1,0.25,0],[1,0.5,0],[1,0.75,0]];outlineConnect=0;fontColor=#232F3E;gradientColor=#945DF2;gradientDirection=north;fillColor=#5A30B5;strokeColor=#ffffff;dashed=0;verticalLabelPosition=bottom;verticalAlign=top;align=center;html=1;fontSize=12;fontStyle=0;aspect=fixed;shape=mxgraph.aws4.resourceIcon;resIcon=mxgraph.aws4.cloudfront;" vertex="1" parent="g7H52zCNC9NMij33Aelw-1">
          <mxGeometry x="312" y="119" width="40" height="40" as="geometry" />
        </mxCell>
        <mxCell id="g7H52zCNC9NMij33Aelw-23" value="&lt;b&gt;Elastic Load Balancing&lt;/b&gt;" style="sketch=0;points=[[0,0,0],[0.25,0,0],[0.5,0,0],[0.75,0,0],[1,0,0],[0,1,0],[0.25,1,0],[0.5,1,0],[0.75,1,0],[1,1,0],[0,0.25,0],[0,0.5,0],[0,0.75,0],[1,0.25,0],[1,0.5,0],[1,0.75,0]];outlineConnect=0;fontColor=#232F3E;gradientColor=#945DF2;gradientDirection=north;fillColor=#5A30B5;strokeColor=#ffffff;dashed=0;verticalLabelPosition=bottom;verticalAlign=top;align=center;html=1;fontSize=12;fontStyle=0;aspect=fixed;shape=mxgraph.aws4.resourceIcon;resIcon=mxgraph.aws4.elastic_load_balancing;" vertex="1" parent="g7H52zCNC9NMij33Aelw-1">
          <mxGeometry x="406" y="408" width="40" height="40" as="geometry" />
        </mxCell>
        <mxCell id="g7H52zCNC9NMij33Aelw-24" value="&lt;b&gt;Web Appliocation Firewall&lt;/b&gt;&lt;br&gt;AWS WAF" style="sketch=0;points=[[0,0,0],[0.25,0,0],[0.5,0,0],[0.75,0,0],[1,0,0],[0,1,0],[0.25,1,0],[0.5,1,0],[0.75,1,0],[1,1,0],[0,0.25,0],[0,0.5,0],[0,0.75,0],[1,0.25,0],[1,0.5,0],[1,0.75,0]];outlineConnect=0;fontColor=#232F3E;gradientColor=#F54749;gradientDirection=north;fillColor=#C7131F;strokeColor=#ffffff;dashed=0;verticalLabelPosition=bottom;verticalAlign=top;align=center;html=1;fontSize=12;fontStyle=0;aspect=fixed;shape=mxgraph.aws4.resourceIcon;resIcon=mxgraph.aws4.waf;" vertex="1" parent="g7H52zCNC9NMij33Aelw-1">
          <mxGeometry x="493" y="120" width="40" height="40" as="geometry" />
        </mxCell>
        <mxCell id="g7H52zCNC9NMij33Aelw-25" value="Availability Zone 1" style="fillColor=none;strokeColor=#147EBA;dashed=1;verticalAlign=top;fontStyle=0;fontColor=#147EBA;" vertex="1" parent="g7H52zCNC9NMij33Aelw-1">
          <mxGeometry x="172" y="227" width="180" height="770" as="geometry" />
        </mxCell>
        <mxCell id="g7H52zCNC9NMij33Aelw-26" value="Availability Zone 2" style="fillColor=none;strokeColor=#147EBA;dashed=1;verticalAlign=top;fontStyle=0;fontColor=#147EBA;" vertex="1" parent="g7H52zCNC9NMij33Aelw-1">
          <mxGeometry x="502" y="227" width="190" height="770" as="geometry" />
        </mxCell>
        <mxCell id="g7H52zCNC9NMij33Aelw-27" value="Public subnet" style="points=[[0,0],[0.25,0],[0.5,0],[0.75,0],[1,0],[1,0.25],[1,0.5],[1,0.75],[1,1],[0.75,1],[0.5,1],[0.25,1],[0,1],[0,0.75],[0,0.5],[0,0.25]];outlineConnect=0;gradientColor=none;html=1;whiteSpace=wrap;fontSize=12;fontStyle=0;container=1;pointerEvents=0;collapsible=0;recursiveResize=0;shape=mxgraph.aws4.group;grIcon=mxgraph.aws4.group_security_group;grStroke=0;strokeColor=#248814;fillColor=#E9F3E6;verticalAlign=top;align=left;spacingLeft=30;fontColor=#248814;dashed=0;" vertex="1" parent="g7H52zCNC9NMij33Aelw-1">
          <mxGeometry x="197" y="277" width="130" height="130" as="geometry" />
        </mxCell>
        <mxCell id="g7H52zCNC9NMij33Aelw-28" value="Public subnet" style="points=[[0,0],[0.25,0],[0.5,0],[0.75,0],[1,0],[1,0.25],[1,0.5],[1,0.75],[1,1],[0.75,1],[0.5,1],[0.25,1],[0,1],[0,0.75],[0,0.5],[0,0.25]];outlineConnect=0;gradientColor=none;html=1;whiteSpace=wrap;fontSize=12;fontStyle=0;container=1;pointerEvents=0;collapsible=0;recursiveResize=0;shape=mxgraph.aws4.group;grIcon=mxgraph.aws4.group_security_group;grStroke=0;strokeColor=#248814;fillColor=#E9F3E6;verticalAlign=top;align=left;spacingLeft=30;fontColor=#248814;dashed=0;" vertex="1" parent="g7H52zCNC9NMij33Aelw-1">
          <mxGeometry x="532" y="277" width="130" height="130" as="geometry" />
        </mxCell>
        <mxCell id="g7H52zCNC9NMij33Aelw-30" value="Web subnet" style="points=[[0,0],[0.25,0],[0.5,0],[0.75,0],[1,0],[1,0.25],[1,0.5],[1,0.75],[1,1],[0.75,1],[0.5,1],[0.25,1],[0,1],[0,0.75],[0,0.5],[0,0.25]];outlineConnect=0;gradientColor=none;html=1;whiteSpace=wrap;fontSize=12;fontStyle=0;container=1;pointerEvents=0;collapsible=0;recursiveResize=0;shape=mxgraph.aws4.group;grIcon=mxgraph.aws4.group_security_group;grStroke=0;strokeColor=#147EBA;fillColor=#E6F2F8;verticalAlign=top;align=left;spacingLeft=30;fontColor=#147EBA;dashed=0;" vertex="1" parent="g7H52zCNC9NMij33Aelw-1">
          <mxGeometry x="197" y="457" width="130" height="130" as="geometry" />
        </mxCell>
        <mxCell id="g7H52zCNC9NMij33Aelw-31" value="Web subnet" style="points=[[0,0],[0.25,0],[0.5,0],[0.75,0],[1,0],[1,0.25],[1,0.5],[1,0.75],[1,1],[0.75,1],[0.5,1],[0.25,1],[0,1],[0,0.75],[0,0.5],[0,0.25]];outlineConnect=0;gradientColor=none;html=1;whiteSpace=wrap;fontSize=12;fontStyle=0;container=1;pointerEvents=0;collapsible=0;recursiveResize=0;shape=mxgraph.aws4.group;grIcon=mxgraph.aws4.group_security_group;grStroke=0;strokeColor=#147EBA;fillColor=#E6F2F8;verticalAlign=top;align=left;spacingLeft=30;fontColor=#147EBA;dashed=0;" vertex="1" parent="g7H52zCNC9NMij33Aelw-1">
          <mxGeometry x="532" y="457" width="130" height="130" as="geometry" />
        </mxCell>
        <mxCell id="g7H52zCNC9NMij33Aelw-32" value="App subnet" style="points=[[0,0],[0.25,0],[0.5,0],[0.75,0],[1,0],[1,0.25],[1,0.5],[1,0.75],[1,1],[0.75,1],[0.5,1],[0.25,1],[0,1],[0,0.75],[0,0.5],[0,0.25]];outlineConnect=0;gradientColor=none;html=1;whiteSpace=wrap;fontSize=12;fontStyle=0;container=1;pointerEvents=0;collapsible=0;recursiveResize=0;shape=mxgraph.aws4.group;grIcon=mxgraph.aws4.group_security_group;grStroke=0;strokeColor=#147EBA;fillColor=#E6F2F8;verticalAlign=top;align=left;spacingLeft=30;fontColor=#147EBA;dashed=0;" vertex="1" parent="g7H52zCNC9NMij33Aelw-1">
          <mxGeometry x="196" y="642" width="130" height="130" as="geometry" />
        </mxCell>
        <mxCell id="g7H52zCNC9NMij33Aelw-33" value="App subnet" style="points=[[0,0],[0.25,0],[0.5,0],[0.75,0],[1,0],[1,0.25],[1,0.5],[1,0.75],[1,1],[0.75,1],[0.5,1],[0.25,1],[0,1],[0,0.75],[0,0.5],[0,0.25]];outlineConnect=0;gradientColor=none;html=1;whiteSpace=wrap;fontSize=12;fontStyle=0;container=1;pointerEvents=0;collapsible=0;recursiveResize=0;shape=mxgraph.aws4.group;grIcon=mxgraph.aws4.group_security_group;grStroke=0;strokeColor=#147EBA;fillColor=#E6F2F8;verticalAlign=top;align=left;spacingLeft=30;fontColor=#147EBA;dashed=0;" vertex="1" parent="g7H52zCNC9NMij33Aelw-1">
          <mxGeometry x="532" y="642" width="130" height="130" as="geometry" />
        </mxCell>
        <mxCell id="g7H52zCNC9NMij33Aelw-34" value="DB subnet" style="points=[[0,0],[0.25,0],[0.5,0],[0.75,0],[1,0],[1,0.25],[1,0.5],[1,0.75],[1,1],[0.75,1],[0.5,1],[0.25,1],[0,1],[0,0.75],[0,0.5],[0,0.25]];outlineConnect=0;gradientColor=none;html=1;whiteSpace=wrap;fontSize=12;fontStyle=0;container=1;pointerEvents=0;collapsible=0;recursiveResize=0;shape=mxgraph.aws4.group;grIcon=mxgraph.aws4.group_security_group;grStroke=0;strokeColor=#147EBA;fillColor=#E6F2F8;verticalAlign=top;align=left;spacingLeft=30;fontColor=#147EBA;dashed=0;" vertex="1" parent="g7H52zCNC9NMij33Aelw-1">
          <mxGeometry x="196" y="827" width="130" height="130" as="geometry" />
        </mxCell>
        <mxCell id="g7H52zCNC9NMij33Aelw-35" value="DB subnet" style="points=[[0,0],[0.25,0],[0.5,0],[0.75,0],[1,0],[1,0.25],[1,0.5],[1,0.75],[1,1],[0.75,1],[0.5,1],[0.25,1],[0,1],[0,0.75],[0,0.5],[0,0.25]];outlineConnect=0;gradientColor=none;html=1;whiteSpace=wrap;fontSize=12;fontStyle=0;container=1;pointerEvents=0;collapsible=0;recursiveResize=0;shape=mxgraph.aws4.group;grIcon=mxgraph.aws4.group_security_group;grStroke=0;strokeColor=#147EBA;fillColor=#E6F2F8;verticalAlign=top;align=left;spacingLeft=30;fontColor=#147EBA;dashed=0;" vertex="1" parent="g7H52zCNC9NMij33Aelw-1">
          <mxGeometry x="532" y="827" width="130" height="130" as="geometry" />
        </mxCell>
        <mxCell id="g7H52zCNC9NMij33Aelw-36" value="VPC" style="points=[[0,0],[0.25,0],[0.5,0],[0.75,0],[1,0],[1,0.25],[1,0.5],[1,0.75],[1,1],[0.75,1],[0.5,1],[0.25,1],[0,1],[0,0.75],[0,0.5],[0,0.25]];outlineConnect=0;gradientColor=none;html=1;whiteSpace=wrap;fontSize=12;fontStyle=0;container=1;pointerEvents=0;collapsible=0;recursiveResize=0;shape=mxgraph.aws4.group;grIcon=mxgraph.aws4.group_vpc;strokeColor=#248814;fillColor=none;verticalAlign=top;align=left;spacingLeft=30;fontColor=#AAB7B8;dashed=0;" vertex="1" parent="g7H52zCNC9NMij33Aelw-1">
          <mxGeometry x="20" y="259" width="700" height="729.5" as="geometry" />
        </mxCell>
        <mxCell id="g7H52zCNC9NMij33Aelw-37" value="&lt;b&gt;Nat Gateway&lt;/b&gt;" style="sketch=0;outlineConnect=0;fontColor=#232F3E;gradientColor=none;fillColor=#4D27AA;strokeColor=none;dashed=0;verticalLabelPosition=bottom;verticalAlign=top;align=center;html=1;fontSize=12;fontStyle=0;aspect=fixed;pointerEvents=1;shape=mxgraph.aws4.nat_gateway;" vertex="1" parent="g7H52zCNC9NMij33Aelw-36">
          <mxGeometry x="221" y="63" width="40" height="40" as="geometry" />
        </mxCell>
        <mxCell id="g7H52zCNC9NMij33Aelw-41" value="&lt;b&gt;Web Servers&lt;/b&gt;&lt;br&gt;EC2 Instanaces" style="sketch=0;outlineConnect=0;fontColor=#232F3E;gradientColor=none;fillColor=#D45B07;strokeColor=none;dashed=0;verticalLabelPosition=bottom;verticalAlign=top;align=center;html=1;fontSize=12;fontStyle=0;aspect=fixed;pointerEvents=1;shape=mxgraph.aws4.instances;" vertex="1" parent="g7H52zCNC9NMij33Aelw-36">
          <mxGeometry x="221" y="247" width="40" height="40" as="geometry" />
        </mxCell>
        <mxCell id="g7H52zCNC9NMij33Aelw-42" value="&lt;b&gt;Web Servers&lt;/b&gt;&lt;br&gt;EC2 Instances" style="sketch=0;outlineConnect=0;fontColor=#232F3E;gradientColor=none;fillColor=#D45B07;strokeColor=none;dashed=0;verticalLabelPosition=bottom;verticalAlign=top;align=center;html=1;fontSize=12;fontStyle=0;aspect=fixed;pointerEvents=1;shape=mxgraph.aws4.instances;" vertex="1" parent="g7H52zCNC9NMij33Aelw-36">
          <mxGeometry x="557" y="243" width="40" height="40" as="geometry" />
        </mxCell>
        <mxCell id="g7H52zCNC9NMij33Aelw-49" style="edgeStyle=orthogonalEdgeStyle;rounded=0;orthogonalLoop=1;jettySize=auto;html=1;entryX=1;entryY=0.5;entryDx=0;entryDy=0;entryPerimeter=0;endArrow=open;endFill=0;" edge="1" parent="g7H52zCNC9NMij33Aelw-36" source="g7H52zCNC9NMij33Aelw-43" target="g7H52zCNC9NMij33Aelw-47">
          <mxGeometry relative="1" as="geometry" />
        </mxCell>
        <mxCell id="g7H52zCNC9NMij33Aelw-50" style="edgeStyle=orthogonalEdgeStyle;rounded=0;orthogonalLoop=1;jettySize=auto;html=1;entryX=1;entryY=0.25;entryDx=0;entryDy=0;entryPerimeter=0;endArrow=open;endFill=0;" edge="1" parent="g7H52zCNC9NMij33Aelw-36" source="g7H52zCNC9NMij33Aelw-43" target="g7H52zCNC9NMij33Aelw-45">
          <mxGeometry relative="1" as="geometry">
            <Array as="points">
              <mxPoint x="320" y="460" />
              <mxPoint x="320" y="620" />
            </Array>
          </mxGeometry>
        </mxCell>
        <mxCell id="g7H52zCNC9NMij33Aelw-51" style="edgeStyle=orthogonalEdgeStyle;rounded=0;orthogonalLoop=1;jettySize=auto;html=1;entryX=1;entryY=0.25;entryDx=0;entryDy=0;entryPerimeter=0;endArrow=open;endFill=0;" edge="1" parent="g7H52zCNC9NMij33Aelw-36" source="g7H52zCNC9NMij33Aelw-43" target="g7H52zCNC9NMij33Aelw-48">
          <mxGeometry relative="1" as="geometry">
            <Array as="points">
              <mxPoint x="130" y="460" />
              <mxPoint x="130" y="620" />
            </Array>
          </mxGeometry>
        </mxCell>
        <mxCell id="g7H52zCNC9NMij33Aelw-43" value="&lt;b&gt;App Servers&lt;/b&gt;&lt;br&gt;EC2 Instance" style="sketch=0;outlineConnect=0;fontColor=#232F3E;gradientColor=none;fillColor=#D45B07;strokeColor=none;dashed=0;verticalLabelPosition=bottom;verticalAlign=top;align=center;html=1;fontSize=12;fontStyle=0;aspect=fixed;pointerEvents=1;shape=mxgraph.aws4.instances;" vertex="1" parent="g7H52zCNC9NMij33Aelw-36">
          <mxGeometry x="218" y="427" width="48" height="48" as="geometry" />
        </mxCell>
        <mxCell id="g7H52zCNC9NMij33Aelw-55" style="edgeStyle=orthogonalEdgeStyle;rounded=0;orthogonalLoop=1;jettySize=auto;html=1;entryX=1;entryY=0.5;entryDx=0;entryDy=0;entryPerimeter=0;endArrow=open;endFill=0;" edge="1" parent="g7H52zCNC9NMij33Aelw-36" source="g7H52zCNC9NMij33Aelw-44" target="g7H52zCNC9NMij33Aelw-45">
          <mxGeometry relative="1" as="geometry">
            <Array as="points">
              <mxPoint x="500" y="451" />
              <mxPoint x="500" y="630" />
            </Array>
          </mxGeometry>
        </mxCell>
        <mxCell id="g7H52zCNC9NMij33Aelw-44" value="&lt;b&gt;App Servers&lt;/b&gt;&lt;br&gt;EC2 Instance" style="sketch=0;outlineConnect=0;fontColor=#232F3E;gradientColor=none;fillColor=#D45B07;strokeColor=none;dashed=0;verticalLabelPosition=bottom;verticalAlign=top;align=center;html=1;fontSize=12;fontStyle=0;aspect=fixed;pointerEvents=1;shape=mxgraph.aws4.instances;" vertex="1" parent="g7H52zCNC9NMij33Aelw-36">
          <mxGeometry x="552" y="427" width="48" height="48" as="geometry" />
        </mxCell>
        <mxCell id="g7H52zCNC9NMij33Aelw-53" style="edgeStyle=orthogonalEdgeStyle;rounded=0;orthogonalLoop=1;jettySize=auto;html=1;entryX=1;entryY=0.75;entryDx=0;entryDy=0;entryPerimeter=0;endArrow=open;endFill=0;" edge="1" parent="g7H52zCNC9NMij33Aelw-36" source="g7H52zCNC9NMij33Aelw-45" target="g7H52zCNC9NMij33Aelw-48">
          <mxGeometry relative="1" as="geometry">
            <Array as="points">
              <mxPoint x="190" y="640" />
              <mxPoint x="190" y="640" />
            </Array>
          </mxGeometry>
        </mxCell>
        <mxCell id="g7H52zCNC9NMij33Aelw-45" value="&lt;b&gt;Database（Primary）&lt;/b&gt;&lt;br&gt;Amazone RDS" style="sketch=0;points=[[0,0,0],[0.25,0,0],[0.5,0,0],[0.75,0,0],[1,0,0],[0,1,0],[0.25,1,0],[0.5,1,0],[0.75,1,0],[1,1,0],[0,0.25,0],[0,0.5,0],[0,0.75,0],[1,0.25,0],[1,0.5,0],[1,0.75,0]];outlineConnect=0;fontColor=#232F3E;gradientColor=#4D72F3;gradientDirection=north;fillColor=#3334B9;strokeColor=#ffffff;dashed=0;verticalLabelPosition=bottom;verticalAlign=top;align=center;html=1;fontSize=12;fontStyle=0;aspect=fixed;shape=mxgraph.aws4.resourceIcon;resIcon=mxgraph.aws4.rds;" vertex="1" parent="g7H52zCNC9NMij33Aelw-36">
          <mxGeometry x="221" y="610" width="40" height="40" as="geometry" />
        </mxCell>
        <mxCell id="g7H52zCNC9NMij33Aelw-47" value="&lt;b&gt;Shared Storage&lt;/b&gt;&lt;br&gt;Amazon EFS" style="sketch=0;points=[[0,0,0],[0.25,0,0],[0.5,0,0],[0.75,0,0],[1,0,0],[0,1,0],[0.25,1,0],[0.5,1,0],[0.75,1,0],[1,1,0],[0,0.25,0],[0,0.5,0],[0,0.75,0],[1,0.25,0],[1,0.5,0],[1,0.75,0]];outlineConnect=0;fontColor=#232F3E;gradientColor=#60A337;gradientDirection=north;fillColor=#277116;strokeColor=#ffffff;dashed=0;verticalLabelPosition=bottom;verticalAlign=top;align=center;html=1;fontSize=12;fontStyle=0;aspect=fixed;shape=mxgraph.aws4.resourceIcon;resIcon=mxgraph.aws4.elastic_file_system;" vertex="1" parent="g7H52zCNC9NMij33Aelw-36">
          <mxGeometry x="50" y="431" width="40" height="40" as="geometry" />
        </mxCell>
        <mxCell id="g7H52zCNC9NMij33Aelw-48" value="&lt;b&gt;Caching Service&lt;/b&gt;&lt;br&gt;Amazon ElastiCache" style="sketch=0;points=[[0,0,0],[0.25,0,0],[0.5,0,0],[0.75,0,0],[1,0,0],[0,1,0],[0.25,1,0],[0.5,1,0],[0.75,1,0],[1,1,0],[0,0.25,0],[0,0.5,0],[0,0.75,0],[1,0.25,0],[1,0.5,0],[1,0.75,0]];outlineConnect=0;fontColor=#232F3E;gradientColor=#4D72F3;gradientDirection=north;fillColor=#3334B9;strokeColor=#ffffff;dashed=0;verticalLabelPosition=bottom;verticalAlign=top;align=center;html=1;fontSize=12;fontStyle=0;aspect=fixed;shape=mxgraph.aws4.resourceIcon;resIcon=mxgraph.aws4.elasticache;" vertex="1" parent="g7H52zCNC9NMij33Aelw-36">
          <mxGeometry x="50" y="610" width="40" height="40" as="geometry" />
        </mxCell>
        <mxCell id="g7H52zCNC9NMij33Aelw-60" value="&lt;font color=&quot;#cc6600&quot;&gt;Auto Scaling Group&lt;br&gt;App tier&lt;/font&gt;" style="sketch=0;outlineConnect=0;fontColor=#232F3E;gradientColor=none;fillColor=#D45B07;strokeColor=none;dashed=0;verticalLabelPosition=bottom;verticalAlign=top;align=center;html=1;fontSize=12;fontStyle=0;aspect=fixed;pointerEvents=1;shape=mxgraph.aws4.auto_scaling2;" vertex="1" parent="g7H52zCNC9NMij33Aelw-36">
          <mxGeometry x="390" y="431" width="40" height="40" as="geometry" />
        </mxCell>
        <mxCell id="g7H52zCNC9NMij33Aelw-63" value="" style="rounded=1;arcSize=10;dashed=1;fillColor=none;gradientColor=none;strokeWidth=1;sketch=1;strokeColor=#FFB570;" vertex="1" parent="g7H52zCNC9NMij33Aelw-36">
          <mxGeometry x="187" y="420" width="446" height="90" as="geometry" />
        </mxCell>
        <mxCell id="g7H52zCNC9NMij33Aelw-66" value="" style="rounded=1;arcSize=10;dashed=1;fillColor=none;gradientColor=none;strokeWidth=1;sketch=1;strokeColor=#66B2FF;" vertex="1" parent="g7H52zCNC9NMij33Aelw-36">
          <mxGeometry x="180" y="600" width="460" height="90" as="geometry" />
        </mxCell>
        <mxCell id="g7H52zCNC9NMij33Aelw-67" value="&lt;font color=&quot;#3399ff&quot;&gt;DB subnet group&lt;/font&gt;" style="text;html=1;align=center;verticalAlign=middle;resizable=0;points=[];autosize=1;strokeColor=none;fillColor=none;fontColor=#CC6600;" vertex="1" parent="g7H52zCNC9NMij33Aelw-36">
          <mxGeometry x="354" y="603" width="110" height="30" as="geometry" />
        </mxCell>
        <mxCell id="g7H52zCNC9NMij33Aelw-38" value="&lt;b&gt;Nat Gateway&lt;/b&gt;" style="sketch=0;outlineConnect=0;fontColor=#232F3E;gradientColor=none;fillColor=#4D27AA;strokeColor=none;dashed=0;verticalLabelPosition=bottom;verticalAlign=top;align=center;html=1;fontSize=12;fontStyle=0;aspect=fixed;pointerEvents=1;shape=mxgraph.aws4.nat_gateway;" vertex="1" parent="g7H52zCNC9NMij33Aelw-1">
          <mxGeometry x="577" y="322" width="38" height="38" as="geometry" />
        </mxCell>
        <mxCell id="g7H52zCNC9NMij33Aelw-46" value="&lt;b&gt;Database（Standby）&lt;/b&gt;&lt;br&gt;Amazone RDS" style="sketch=0;points=[[0,0,0],[0.25,0,0],[0.5,0,0],[0.75,0,0],[1,0,0],[0,1,0],[0.25,1,0],[0.5,1,0],[0.75,1,0],[1,1,0],[0,0.25,0],[0,0.5,0],[0,0.75,0],[1,0.25,0],[1,0.5,0],[1,0.75,0]];outlineConnect=0;fontColor=#232F3E;gradientColor=#4D72F3;gradientDirection=north;fillColor=#3334B9;strokeColor=#ffffff;dashed=0;verticalLabelPosition=bottom;verticalAlign=top;align=center;html=1;fontSize=12;fontStyle=0;aspect=fixed;shape=mxgraph.aws4.resourceIcon;resIcon=mxgraph.aws4.rds;" vertex="1" parent="g7H52zCNC9NMij33Aelw-1">
          <mxGeometry x="576" y="869" width="40" height="40" as="geometry" />
        </mxCell>
        <mxCell id="g7H52zCNC9NMij33Aelw-52" style="edgeStyle=orthogonalEdgeStyle;rounded=0;orthogonalLoop=1;jettySize=auto;html=1;endArrow=open;endFill=0;" edge="1" parent="g7H52zCNC9NMij33Aelw-1" source="g7H52zCNC9NMij33Aelw-45">
          <mxGeometry relative="1" as="geometry">
            <mxPoint x="580" y="899" as="targetPoint" />
            <Array as="points">
              <mxPoint x="576" y="899" />
            </Array>
          </mxGeometry>
        </mxCell>
        <mxCell id="g7H52zCNC9NMij33Aelw-58" style="edgeStyle=orthogonalEdgeStyle;rounded=0;orthogonalLoop=1;jettySize=auto;html=1;endArrow=open;endFill=0;" edge="1" parent="1" source="g7H52zCNC9NMij33Aelw-56" target="g7H52zCNC9NMij33Aelw-43">
          <mxGeometry relative="1" as="geometry" />
        </mxCell>
        <mxCell id="g7H52zCNC9NMij33Aelw-59" style="edgeStyle=orthogonalEdgeStyle;rounded=0;orthogonalLoop=1;jettySize=auto;html=1;endArrow=open;endFill=0;" edge="1" parent="1" source="g7H52zCNC9NMij33Aelw-56" target="g7H52zCNC9NMij33Aelw-44">
          <mxGeometry relative="1" as="geometry" />
        </mxCell>
        <mxCell id="g7H52zCNC9NMij33Aelw-56" value="&lt;b&gt;Elastic Load Balancing&lt;/b&gt;" style="sketch=0;points=[[0,0,0],[0.25,0,0],[0.5,0,0],[0.75,0,0],[1,0,0],[0,1,0],[0.25,1,0],[0.5,1,0],[0.75,1,0],[1,1,0],[0,0.25,0],[0,0.5,0],[0,0.75,0],[1,0.25,0],[1,0.5,0],[1,0.75,0]];outlineConnect=0;fontColor=#232F3E;gradientColor=#945DF2;gradientDirection=north;fillColor=#5A30B5;strokeColor=#ffffff;dashed=0;verticalLabelPosition=top;verticalAlign=bottom;align=center;html=1;fontSize=12;fontStyle=0;aspect=fixed;shape=mxgraph.aws4.resourceIcon;resIcon=mxgraph.aws4.elastic_load_balancing;labelPosition=center;" vertex="1" parent="1">
          <mxGeometry x="418" y="792" width="40" height="40" as="geometry" />
        </mxCell>
      </root>
    </mxGraphModel>
  </diagram>
</mxfile>
